<svg width="456" height="456" viewBox="0 0 456 456" fill="none" xmlns="http://www.w3.org/2000/svg">
<path d="M282.833 193.833C285.497 193.833 288.082 194.147 290.667 194.538V170.333C290.667 161.717 283.695 154.667 275 154.667H267.167V139C267.167 117.38 249.62 99.8335 228 99.8335C206.38 99.8335 188.833 117.38 188.833 139V154.667H181C172.383 154.667 165.333 161.638 165.333 170.333V248.667C165.333 257.362 172.305 264.333 181 264.333H242.178C238.183 257.44 235.833 249.45 235.833 240.833C235.833 214.905 256.905 193.833 282.833 193.833ZM204.5 139C204.5 125.997 214.997 115.5 228 115.5C241.003 115.5 251.5 125.997 251.5 139V154.667H204.5V139ZM228 225.167C219.383 225.167 212.333 218.195 212.333 209.5C212.333 200.805 219.383 193.833 228 193.833C236.617 193.833 243.667 200.805 243.667 209.5C243.667 218.195 236.695 225.167 228 225.167ZM310.25 227.125L273.042 264.333L251.5 240.833L260.587 231.747L273.042 244.202L301.163 216.08L310.25 227.125Z" fill="white"/>
<path d="M136.376 348.896H151.096V356H127.416V311.328H136.376V348.896ZM172.535 356.576C169.122 356.576 166.05 355.829 163.319 354.336C160.588 352.8 158.434 350.645 156.855 347.872C155.319 345.099 154.551 341.899 154.551 338.272C154.551 334.645 155.34 331.445 156.919 328.672C158.54 325.899 160.738 323.765 163.511 322.272C166.284 320.736 169.378 319.968 172.791 319.968C176.204 319.968 179.298 320.736 182.071 322.272C184.844 323.765 187.02 325.899 188.599 328.672C190.22 331.445 191.031 334.645 191.031 338.272C191.031 341.899 190.199 345.099 188.535 347.872C186.914 350.645 184.695 352.8 181.879 354.336C179.106 355.829 175.991 356.576 172.535 356.576ZM172.535 348.768C174.156 348.768 175.671 348.384 177.079 347.616C178.53 346.805 179.682 345.611 180.535 344.032C181.388 342.453 181.815 340.533 181.815 338.272C181.815 334.901 180.919 332.32 179.127 330.528C177.378 328.693 175.223 327.776 172.663 327.776C170.103 327.776 167.948 328.693 166.199 330.528C164.492 332.32 163.639 334.901 163.639 338.272C163.639 341.643 164.471 344.245 166.135 346.08C167.842 347.872 169.975 348.768 172.535 348.768ZM195.299 338.272C195.299 334.603 196.046 331.403 197.54 328.672C199.033 325.899 201.102 323.765 203.748 322.272C206.393 320.736 209.422 319.968 212.836 319.968C217.23 319.968 220.857 321.077 223.716 323.296C226.617 325.472 228.558 328.544 229.54 332.512H219.876C219.364 330.976 218.489 329.781 217.252 328.928C216.057 328.032 214.564 327.584 212.772 327.584C210.212 327.584 208.185 328.523 206.692 330.4C205.198 332.235 204.452 334.859 204.452 338.272C204.452 341.643 205.198 344.267 206.692 346.144C208.185 347.979 210.212 348.896 212.772 348.896C216.398 348.896 218.766 347.275 219.876 344.032H229.54C228.558 347.872 226.617 350.923 223.716 353.184C220.814 355.445 217.188 356.576 212.836 356.576C209.422 356.576 206.393 355.829 203.748 354.336C201.102 352.8 199.033 350.667 197.54 347.936C196.046 345.163 195.299 341.941 195.299 338.272ZM257.096 356L245.064 340.896V356H236.104V308.64H245.064V335.584L256.968 320.544H268.616L253 338.336L268.744 356H257.096ZM306.439 337.504C306.439 338.784 306.353 339.936 306.183 340.96H280.263C280.476 343.52 281.372 345.525 282.951 346.976C284.529 348.427 286.471 349.152 288.775 349.152C292.103 349.152 294.471 347.723 295.879 344.864H305.543C304.519 348.277 302.556 351.093 299.655 353.312C296.753 355.488 293.191 356.576 288.967 356.576C285.553 356.576 282.481 355.829 279.751 354.336C277.063 352.8 274.951 350.645 273.415 347.872C271.921 345.099 271.174 341.899 271.174 338.272C271.174 334.603 271.921 331.381 273.415 328.608C274.908 325.835 276.999 323.701 279.687 322.208C282.375 320.715 285.468 319.968 288.967 319.968C292.337 319.968 295.345 320.693 297.991 322.144C300.679 323.595 302.748 325.664 304.199 328.352C305.692 330.997 306.439 334.048 306.439 337.504ZM297.159 334.944C297.116 332.64 296.284 330.805 294.663 329.44C293.041 328.032 291.057 327.328 288.711 327.328C286.492 327.328 284.615 328.011 283.079 329.376C281.585 330.699 280.668 332.555 280.327 334.944H297.159ZM310.674 338.144C310.674 334.56 311.378 331.381 312.786 328.608C314.237 325.835 316.2 323.701 318.675 322.208C321.149 320.715 323.901 319.968 326.931 319.968C329.235 319.968 331.432 320.48 333.523 321.504C335.613 322.485 337.277 323.808 338.515 325.472V308.64H347.603V356H338.515V350.752C337.405 352.501 335.848 353.909 333.843 354.976C331.837 356.043 329.512 356.576 326.867 356.576C323.88 356.576 321.149 355.808 318.675 354.272C316.2 352.736 314.237 350.581 312.786 347.808C311.378 344.992 310.674 341.771 310.674 338.144ZM338.579 338.272C338.579 336.096 338.152 334.24 337.299 332.704C336.445 331.125 335.293 329.931 333.843 329.12C332.392 328.267 330.835 327.84 329.171 327.84C327.507 327.84 325.971 328.245 324.562 329.056C323.155 329.867 322.003 331.061 321.107 332.64C320.253 334.176 319.827 336.011 319.827 338.144C319.827 340.277 320.253 342.155 321.107 343.776C322.003 345.355 323.155 346.571 324.562 347.424C326.013 348.277 327.549 348.704 329.171 348.704C330.835 348.704 332.392 348.299 333.843 347.488C335.293 346.635 336.445 345.44 337.299 343.904C338.152 342.325 338.579 340.448 338.579 338.272Z" fill="white"/>
</svg>
