<svg width="456" height="456" viewBox="0 0 456 456" fill="none" xmlns="http://www.w3.org/2000/svg">
<path d="M282.833 235.833C285.497 235.833 288.082 236.147 290.667 236.538V212.333C290.667 203.717 283.695 196.667 275 196.667H267.167V181C267.167 159.38 249.62 141.833 228 141.833C206.38 141.833 188.833 159.38 188.833 181V196.667H181C172.383 196.667 165.333 203.638 165.333 212.333V290.667C165.333 299.362 172.305 306.333 181 306.333H242.178C238.183 299.44 235.833 291.45 235.833 282.833C235.833 256.905 256.905 235.833 282.833 235.833ZM204.5 181C204.5 167.997 214.997 157.5 228 157.5C241.003 157.5 251.5 167.997 251.5 181V196.667H204.5V181ZM228 267.167C219.383 267.167 212.333 260.195 212.333 251.5C212.333 242.805 219.383 235.833 228 235.833C236.617 235.833 243.667 242.805 243.667 251.5C243.667 260.195 236.695 267.167 228 267.167ZM310.25 269.125L273.042 306.333L251.5 282.833L260.587 273.747L273.042 286.202L301.163 258.08L310.25 269.125Z" fill="white"/>
</svg>
